<svg viewBox="0 0 91.05 110.63" id="logo" xmlns="http://www.w3.org/2000/svg" width="100%" height="100%"><title>logo</title><path fill="#231f20" data-name="Fill-1" class="background" d="M91 73.76V0H0v73.76c0 20.37 20.38 36.88 45.52 36.88S91 94.12 91 73.76"></path><path fill="#fefefe" data-name="Fill-4" class="text" d="M20.22 7.77h3.67c0 4.4-.06 6.6-.11 11 1.95.13 2.93.19 4.88.29 0-4.51.07-6.77.11-11.28h3.68l-.24 26.66c-1.48-.14-2.23-.21-3.7-.38 0-4.78.07-7.16.12-11.94-2-.13-2.93-.2-4.88-.36 0 4.66-.07 7-.12 11.64-1.46-.22-2.18-.34-3.63-.6q.11-12.51.21-25"></path><path fill="#fefefe" data-name="Fill-6" class="text" d="M49.07 28.85c0 3.17-1.22 6.48-6.32 6.38s-6.35-3.43-6.33-6.57l.14-20.89h3.67q0 10.83-.09 21.66c0 1.84.67 2.82 2.61 2.85s2.58-.92 2.58-2.77V7.77H49q0 10.53.06 21.07"></path><path fill="#fefefe" data-name="Fill-8" class="text" d="M53.06 7.78h3.67q.1 13.41.21 26.82c-1.49.12-2.23.16-3.73.24q-.08-13.53-.15-27.06"></path><path fill="#fefefe" data-name="Fill-10" class="text" d="M60.69 26.59c1.48-.11 2.22-.17 3.69-.31v2.13c0 1.73.69 2.74 2.15 2.55 1.93-.25 2.39-1.6 2.38-3.25 0-2.15-.14-2.73-4-6.16-2.37-2.12-4.34-4.19-4.38-7.79 0-4.33 2-6.19 6-6.19a6.57 6.57 0 0 1 4.31 1.38c.63.54 1.07 1.4 1.09 3.16v2.34l-3.44.16v-2c0-1.44-.65-2.28-2.08-2.26s-2.2.86-2.18 2.88c0 1.77.4 2.92 3.8 6.07 3.61 3.35 4.26 4.37 4.28 7.35 0 3.88-1.51 6.47-5.86 7.11-3.37.49-5.72-.71-5.75-4v-3.15"></path><path fill="#fefefe" data-name="Fill-12" class="text" d="M23.64 39.6c1.46.28 2.19.4 3.67.63Q29.14 51.05 31 61.88q2.08-10.35 4.07-20.72c1.49.13 2.25.18 3.75.26C37 50.22 35.09 59 33.13 67.76c-1.76-.32-2.62-.5-4.35-.93q-2.56-13.62-5.14-27.23"></path><path fill="#fefefe" data-name="Fill-14" class="text" d="M42.09 58.68c1.93.08 2.91.09 4.85.06-.94-5.24-1.43-7.86-2.36-13.13h-.07c-1 5.24-1.44 7.86-2.42 13.07m.46-17.1c1.74 0 2.62.05 4.37 0q2.78 13.47 5.68 26.9c-1.53.16-2.3.21-3.84.28-.52-2.76-.76-4.1-1.28-6.86-2.39.06-3.59 0-6-.08-.51 2.75-.77 4.12-1.29 6.85-1.53-.12-2.3-.2-3.82-.4 2.11-8.88 4.14-17.78 6.15-26.69"></path><path fill="#fefefe" data-name="Fill-16" class="text" d="M54.26 41.3c2.07-.15 3.1-.25 5.15-.49Q61.68 51.39 64 61.94h.07q-.07-10.87-.22-21.73c1.38-.21 2.07-.33 3.44-.59l.26 25.66c-2.08.71-3.14 1-5.28 1.55q-2.34-10.94-4.61-21.89h-.08q.1 11.42.19 22.84c-1.33.23-2 .34-3.34.51q-.08-13.5-.17-27"></path><path fill="#fefefe" data-name="Fill-18" class="text" d="M18.16 84.8a42.14 42.14 0 0 0 4.44 2.48c-.84-5.36-1.25-8-2.08-13.29h-.07c-.93 4.44-1.39 6.61-2.28 10.84m.5-15.38c1.61.78 2.43 1.14 4.1 1.79q2.55 14 5.11 28.1a39.4 39.4 0 0 1-3.67-1.66c-.45-2.87-.67-4.3-1.12-7.15a41.35 41.35 0 0 1-5.43-3.15c-.47 2.21-.69 3.31-1.14 5.46a38.75 38.75 0 0 1-3.21-2.71Q16 79.76 18.66 69.42"></path><path fill="#fefefe" data-name="Fill-20" class="text" d="M31.19 73.82c1.5.35 2.26.5 3.79.75q-.09 11.88-.17 23.77a40.59 40.59 0 0 0 6.55 1v3.17a39.82 39.82 0 0 1-10.4-2.1l.24-26.6"></path><path fill="#fefefe" data-name="Fill-22" class="text" d="M44.44 75.44h3.87q0 13.61.06 27.23c-1.57.09-2.36.11-3.94.07V75.49"></path><path fill="#fefefe" data-name="Fill-24" class="text" d="M51.32 94.41c1.47-.17 2.2-.28 3.65-.55v2.65c0 1.06.18 2.53 1.49 2.22S58 97 58 95.68q-.06-10.68-.14-21.43c1.52-.3 2.28-.47 3.76-.87q.11 10.78.21 21.56c0 3.22-1.51 5.8-5.33 6.7-3.21.76-5.15 0-5.16-3.74v-3.49"></path><path fill="#fefefe" data-name="Fill-26" class="text" d="M65.51 72.22a50.22 50.22 0 0 0 5-1.92q2.08 9.15 4.2 18.28h.07l-.1-20.26a49.2 49.2 0 0 0 3.14-1.82v23.6a40.81 40.81 0 0 1-4.68 3.79q-2.16-9.56-4.29-19.13h-.07q.11 10.87.21 21.74c-1.25.71-1.89 1-3.17 1.64q-.14-13-.26-26"></path></svg>