<svg xmlns="http://www.w3.org/2000/svg" width="50" height="50" fill="none" viewBox="0 0 50 50">
  <path fill="#0041FF" stroke="#0041FF" stroke-width="1.5" d="m45.888 12.684-.956-.543a4.676 4.676 0 0 0 0-1.766l.956-.542c.378-.214.653-.567.766-.98a1.588 1.588 0 0 0-.164-1.224 1.639 1.639 0 0 0-.997-.752 1.668 1.668 0 0 0-1.247.161l-.958.545a4.931 4.931 0 0 0-1.556-.885V5.613a1.6 1.6 0 0 0-.48-1.14A1.657 1.657 0 0 0 40.09 4c-.435 0-.853.17-1.16.472a1.596 1.596 0 0 0-.482 1.14v1.086a4.93 4.93 0 0 0-1.556.885l-.958-.545a1.663 1.663 0 0 0-2.243.591 1.594 1.594 0 0 0 .601 2.204l.956.542a4.676 4.676 0 0 0 0 1.766l-.956.543a1.622 1.622 0 0 0-.696.78 1.586 1.586 0 0 0-.07 1.034c.094.343.3.646.587.863a1.66 1.66 0 0 0 1.821.117l.959-.544a4.93 4.93 0 0 0 1.555.885v1.084c0 .428.173.838.481 1.14.308.303.726.473 1.161.473.436 0 .853-.17 1.161-.472a1.6 1.6 0 0 0 .481-1.14v-1.085a4.93 4.93 0 0 0 1.556-.886l.958.545a1.66 1.66 0 0 0 1.821-.117c.287-.217.493-.52.587-.863.094-.343.07-.707-.07-1.035a1.623 1.623 0 0 0-.696-.78Zm-7.44-1.426c0-.319.097-.63.277-.896.18-.265.437-.472.737-.594a1.67 1.67 0 0 1 1.79.35 1.586 1.586 0 0 1 .356 1.758 1.62 1.62 0 0 1-.606.723 1.663 1.663 0 0 1-2.073-.2 1.599 1.599 0 0 1-.48-1.14Zm6.024 9.7c-.43.07-.813.306-1.066.654a1.59 1.59 0 0 0-.282 1.203A17.488 17.488 0 0 1 38.81 37.55a16.303 16.303 0 0 0-7.402-5.797 9.672 9.672 0 0 0 3.359-4.881 9.515 9.515 0 0 0-.146-5.89 9.695 9.695 0 0 0-3.595-4.715 9.974 9.974 0 0 0-5.713-1.794 9.973 9.973 0 0 0-5.713 1.794 9.695 9.695 0 0 0-3.596 4.715 9.514 9.514 0 0 0-.146 5.89 9.671 9.671 0 0 0 3.359 4.881 16.303 16.303 0 0 0-7.401 5.797 17.608 17.608 0 0 1-4.345-9.093 17.458 17.458 0 0 1 1.378-9.953 17.835 17.835 0 0 1 6.659-7.623 18.298 18.298 0 0 1 9.805-2.85c1.01 0 2.017.082 3.013.246.427.067.864-.036 1.215-.284a1.59 1.59 0 0 0 .381-2.24 1.645 1.645 0 0 0-1.055-.657 21.67 21.67 0 0 0-13.084 1.925 21.15 21.15 0 0 0-9.412 9.135 20.628 20.628 0 0 0-2.116 12.83 20.822 20.822 0 0 0 5.992 11.586 21.468 21.468 0 0 0 11.796 5.887 21.667 21.667 0 0 0 13.06-2.08 21.138 21.138 0 0 0 9.3-9.244 20.623 20.623 0 0 0 1.96-12.854 1.61 1.61 0 0 0-.666-1.047 1.665 1.665 0 0 0-1.225-.277ZM18.745 24.16a6.37 6.37 0 0 1 1.107-3.584 6.544 6.544 0 0 1 2.947-2.376 6.678 6.678 0 0 1 3.795-.367 6.606 6.606 0 0 1 3.363 1.765 6.417 6.417 0 0 1 1.797 3.304 6.345 6.345 0 0 1-.373 3.727 6.478 6.478 0 0 1-2.42 2.896 6.652 6.652 0 0 1-3.648 1.087 6.628 6.628 0 0 1-4.644-1.89 6.394 6.394 0 0 1-1.924-4.562Zm-4.5 15.625a13.045 13.045 0 0 1 4.76-4.366 13.321 13.321 0 0 1 6.308-1.586c2.205 0 4.374.545 6.308 1.586a13.045 13.045 0 0 1 4.758 4.366 18.235 18.235 0 0 1-11.066 3.73 18.235 18.235 0 0 1-11.067-3.73Z"/>
</svg>
