<svg xmlns="http://www.w3.org/2000/svg" width="50" height="50" fill="none" viewBox="0 0 50 50">
  <path fill="#0041FF" stroke="#0041FF" d="M25 15.625A9.375 9.375 0 1 0 34.375 25 9.385 9.385 0 0 0 25 15.625Zm0 15.625a6.25 6.25 0 1 1 0-12.5 6.25 6.25 0 0 1 0 12.5Zm17.188-5.828c.007-.281.007-.563 0-.844l2.913-3.64a1.562 1.562 0 0 0 .29-1.38 20.938 20.938 0 0 0-2.125-5.126 1.563 1.563 0 0 0-1.172-.768l-4.633-.516a15.562 15.562 0 0 0-.586-.585l-.547-4.645a1.562 1.562 0 0 0-.77-1.172 21.04 21.04 0 0 0-5.126-2.123 1.562 1.562 0 0 0-1.38.291l-3.63 2.898h-.844l-3.64-2.908a1.563 1.563 0 0 0-1.38-.289 21.016 21.016 0 0 0-5.126 2.125 1.563 1.563 0 0 0-.768 1.172l-.516 4.64c-.203.195-.398.39-.585.587l-4.645.533a1.563 1.563 0 0 0-1.172.77 21.037 21.037 0 0 0-2.123 5.126 1.563 1.563 0 0 0 .291 1.38l2.898 3.63v.844l-2.908 3.64a1.562 1.562 0 0 0-.289 1.38 20.939 20.939 0 0 0 2.125 5.126 1.562 1.562 0 0 0 1.172.768l4.633.516c.194.203.39.398.586.586l.54 4.644a1.564 1.564 0 0 0 .77 1.172 21.04 21.04 0 0 0 5.127 2.123 1.562 1.562 0 0 0 1.38-.291l3.63-2.898c.281.007.563.007.844 0l3.64 2.913a1.562 1.562 0 0 0 1.38.29 20.937 20.937 0 0 0 5.126-2.125 1.562 1.562 0 0 0 .768-1.172l.516-4.633c.203-.193.398-.388.586-.586l4.644-.547a1.562 1.562 0 0 0 1.172-.77 21.042 21.042 0 0 0 2.123-5.126 1.562 1.562 0 0 0-.291-1.38l-2.898-3.63Zm-3.145-1.27a14.54 14.54 0 0 1 0 1.696c-.023.386.098.768.34 1.07l2.771 3.463a17.898 17.898 0 0 1-1.217 2.93l-4.414.5a1.561 1.561 0 0 0-.996.515c-.376.423-.776.823-1.199 1.2-.29.256-.473.611-.516.995l-.49 4.41c-.938.492-1.919.9-2.93 1.217l-3.464-2.771a1.563 1.563 0 0 0-.977-.342h-.094a14.44 14.44 0 0 1-1.695 0 1.563 1.563 0 0 0-1.07.34l-3.473 2.773a17.88 17.88 0 0 1-2.93-1.216l-.5-4.409a1.562 1.562 0 0 0-.515-.996 14.467 14.467 0 0 1-1.2-1.199 1.562 1.562 0 0 0-.995-.516l-4.41-.492a17.834 17.834 0 0 1-1.217-2.93l2.771-3.464c.242-.303.363-.684.34-1.07a14.44 14.44 0 0 1 0-1.696 1.563 1.563 0 0 0-.34-1.07l-2.771-3.47a17.864 17.864 0 0 1 1.216-2.93l4.409-.5c.384-.043.739-.227.996-.516.376-.423.776-.823 1.199-1.2.29-.256.475-.612.517-.998l.49-4.408a17.833 17.833 0 0 1 2.93-1.216l3.465 2.771c.302.242.684.363 1.07.34a14.44 14.44 0 0 1 1.696 0c.386.023.768-.098 1.07-.34l3.47-2.771c1.012.318 1.992.725 2.93 1.216l.5 4.409c.043.384.227.739.516.996.423.376.823.776 1.2 1.199.256.29.611.473.995.515l4.41.49c.492.94.9 1.92 1.217 2.93l-2.771 3.465c-.244.305-.366.69-.34 1.08h.006Z"/>
</svg>
