<svg xmlns="http://www.w3.org/2000/svg" width="50" height="50" fill="none" viewBox="0 0 50 50">
  <path fill="#0041FF" d="M42.188 20.833a2.604 2.604 0 1 0-5.209 0h5.209Zm-29.167 0a2.604 2.604 0 0 0-5.208 0h5.208Zm28.887 6.009a2.605 2.605 0 0 0 3.684-3.684l-3.684 3.684ZM25 6.25l1.842-1.842a2.604 2.604 0 0 0-3.684 0L25 6.25ZM4.408 23.158a2.604 2.604 0 1 0 3.684 3.684l-3.684-3.684Zm10.175 23.196h20.834v-5.208H14.583v5.208Zm27.605-6.77v-18.75h-5.209v18.75h5.209Zm-29.167 0v-18.75H7.813v18.75h5.208Zm32.57-16.426-18.75-18.75-3.683 3.684 18.75 18.75 3.684-3.684ZM23.159 4.408l-18.75 18.75 3.684 3.684 18.75-18.75-3.684-3.684Zm12.259 41.946a6.77 6.77 0 0 0 6.77-6.77H36.98a1.562 1.562 0 0 1-1.562 1.562v5.208Zm-20.834-5.208a1.562 1.562 0 0 1-1.562-1.563H7.813a6.77 6.77 0 0 0 6.77 6.771v-5.208Z"/>
</svg>
